<svg id="visual" viewBox="0 0 960 350" width="960" height="350" xmlns="http://www.w3.org/2000/svg" xmlns:xlink="http://www.w3.org/1999/xlink" version="1.1"><rect x="0" y="0" width="960" height="350" fill="#181B3A"></rect><path d="M0 294L80 290.8C160 287.7 320 281.3 480 285.3C640 289.3 800 303.7 880 310.8L960 318L960 351L880 351C800 351 640 351 480 351C320 351 160 351 80 351L0 351Z" fill="#4facf7"></path><path d="M0 340L80 332.5C160 325 320 310 480 309.8C640 309.7 800 324.3 880 331.7L960 339L960 351L880 351C800 351 640 351 480 351C320 351 160 351 80 351L0 351Z" fill="#eeeeee"></path></svg>