<svg id="visual" viewBox="0 0 960 200" width="960" height="200" xmlns="http://www.w3.org/2000/svg" xmlns:xlink="http://www.w3.org/1999/xlink" version="1.1"><rect x="0" y="0" width="960" height="200" fill="#181B3A"></rect><path d="M0 30L80 31.8C160 33.7 320 37.3 480 35.2C640 33 800 25 880 21L960 17L960 0L880 0C800 0 640 0 480 0C320 0 160 0 80 0L0 0Z" fill="#4facf7"></path><path d="M0 4L80 8.3C160 12.7 320 21.3 480 21.5C640 21.7 800 13.3 880 9.2L960 5L960 0L880 0C800 0 640 0 480 0C320 0 160 0 80 0L0 0Z" fill="#eeeeee"></path></svg>