<svg id="visual" viewBox="0 0 960 350" width="960" height="350" xmlns="http://www.w3.org/2000/svg" xmlns:xlink="http://www.w3.org/1999/xlink" version="1.1"><rect x="0" y="0" width="960" height="350" fill="#181B3A"></rect><path d="M0 97L80 101.3C160 105.7 320 114.3 480 110.5C640 106.7 800 90.3 880 82.2L960 74L960 0L880 0C800 0 640 0 480 0C320 0 160 0 80 0L0 0Z" fill="#4facf7"></path><path d="M0 50L80 55.5C160 61 320 72 480 68.5C640 65 800 47 880 38L960 29L960 0L880 0C800 0 640 0 480 0C320 0 160 0 80 0L0 0Z" fill="#ffffff"></path></svg>