<svg id="visual" viewBox="0 0 960 350" width="960" height="350" xmlns="http://www.w3.org/2000/svg" xmlns:xlink="http://www.w3.org/1999/xlink" version="1.1"><rect x="0" y="0" width="960" height="350" fill="#181B3A"></rect><path d="M0 251L80 246.7C160 242.3 320 233.7 480 237.5C640 241.3 800 257.7 880 265.8L960 274L960 351L880 351C800 351 640 351 480 351C320 351 160 351 80 351L0 351Z" fill="#4facf7"></path><path d="M0 298L80 292.5C160 287 320 276 480 279.5C640 283 800 301 880 310L960 319L960 351L880 351C800 351 640 351 480 351C320 351 160 351 80 351L0 351Z" fill="#ffffff"></path></svg>