<svg id="visual" viewBox="0 0 960 200" width="960" height="200" xmlns="http://www.w3.org/2000/svg" xmlns:xlink="http://www.w3.org/1999/xlink" version="1.1"><rect x="0" y="0" width="960" height="200" fill="#181B3A"></rect><path d="M0 55L80 57.5C160 60 320 65 480 62.8C640 60.7 800 51.3 880 46.7L960 42L960 0L880 0C800 0 640 0 480 0C320 0 160 0 80 0L0 0Z" fill="#4facf7"></path><path d="M0 28L80 31.2C160 34.3 320 40.7 480 38.7C640 36.7 800 26.3 880 21.2L960 16L960 0L880 0C800 0 640 0 480 0C320 0 160 0 80 0L0 0Z" fill="#ffffff"></path></svg>